<?xml version="1.0" standalone="no"?>
<!DOCTYPE svg PUBLIC "-//W3C//DTD SVG 20010904//EN" "http://www.w3.org/TR/2001/REC-SVG-20010904/DTD/svg10.dtd">
<!-- Created using Krita: https://krita.org -->
<svg xmlns="http://www.w3.org/2000/svg" 
    xmlns:xlink="http://www.w3.org/1999/xlink"
    xmlns:krita="http://krita.org/namespaces/svg/krita"
    xmlns:sodipodi="http://sodipodi.sourceforge.net/DTD/sodipodi-0.dtd"
    width="321.12pt"
    height="321.12pt"
    viewBox="0 0 321.12 321.12">
<defs/>
<g id="group0" transform="translate(-0.000677582714374125, 34.9249422012153)" fill="none">
  <path id="path28" transform="matrix(2.7103308575287 0 0 2.7103308575287 1.0842021724855e-19 0)" fill="#ffffff" stroke-opacity="0" stroke="#000000" stroke-width="0" stroke-linecap="square" stroke-linejoin="bevel" d="M47.7663 0.0629L47.7477 0.0659C47.6385 0.0873 47.5294 0.1092 47.4203 0.1312C47.3113 0.1531 47.2023 0.1756 47.0934 0.1981C46.9844 0.2207 46.8754 0.2438 46.7665 0.267C46.6577 0.2901 46.5489 0.3138 46.4402 0.3375C46.3315 0.3611 46.2229 0.3853 46.1144 0.4095C46.0059 0.4338 45.8975 0.4587 45.7891 0.4836C45.6806 0.5086 45.5722 0.5342 45.4639 0.5598C45.3556 0.5853 45.2474 0.6113 45.1392 0.6375C45.0311 0.6637 44.923 0.6904 44.815 0.7173C44.707 0.744 44.5992 0.7712 44.4914 0.7986C44.3836 0.826 44.2759 0.8539 44.1683 0.882C44.0607 0.9099 43.9532 0.9383 43.8457 0.9669C43.7381 0.9954 43.6306 1.0242 43.5232 1.0533C43.416 1.0826 43.3088 1.1124 43.2017 1.1423C43.0945 1.172 42.9873 1.202 42.8802 1.2323C42.7731 1.2628 42.6662 1.2934 42.5593 1.3244C42.4526 1.3554 42.346 1.3869 42.2394 1.4185C42.1327 1.4502 42.0261 1.482 41.9196 1.5142C41.8132 1.5463 41.707 1.5787 41.6008 1.6114C41.4944 1.6442 41.3882 1.6773 41.282 1.7107C41.176 1.744 41.0701 1.7776 40.9643 1.8115C40.8583 1.8455 40.7524 1.8798 40.6466 1.9145C40.541 1.9491 40.4354 1.9839 40.33 2.019C40.2245 2.0543 40.1192 2.0898 40.0139 2.1256C39.9086 2.1613 39.8034 2.1974 39.6983 2.2337C39.5932 2.2699 39.4882 2.3065 39.3833 2.3434C39.2784 2.3804 39.1735 2.4176 39.0688 2.4551C38.9642 2.4926 38.8597 2.5303 38.7553 2.5684C38.6507 2.6066 38.5462 2.645 38.4419 2.6837C38.3377 2.7224 38.2335 2.7614 38.1295 2.8006C38.0256 2.8398 37.9218 2.8793 37.8182 2.919C37.7143 2.9589 37.6106 2.9991 37.5069 3.0395C37.4034 3.08 37.2999 3.1205 37.1966 3.1615C37.0932 3.2025 36.99 3.2435 36.8869 3.2851C36.8229 3.311 36.7589 3.3372 36.695 3.3634C42.376 22.1734 48.055 40.9934 53.735 59.8034L56.356 56.7364ZM70.4163 0L64.2143 47.55L69.2343 41.676L70.2312 43.274L81.3612 3.184C81.27 3.1476 81.1789 3.1117 81.0875 3.0758C80.9841 3.0353 80.8808 2.995 80.7772 2.9551C80.6735 2.9151 80.5696 2.8754 80.4657 2.836C80.3618 2.7965 80.2575 2.7573 80.1533 2.7184C80.0494 2.6796 79.9451 2.6411 79.8409 2.6029C79.7365 2.5646 79.632 2.5267 79.5275 2.489C79.4229 2.4512 79.318 2.4138 79.2131 2.3766C79.1085 2.3396 79.0036 2.3028 78.8987 2.2663C78.7937 2.2298 78.6885 2.1935 78.5833 2.1576C78.4781 2.1218 78.3728 2.0862 78.2674 2.051C78.162 2.0156 78.0566 1.9807 77.951 1.9459C77.8453 1.9111 77.7395 1.8766 77.6336 1.8424C77.5279 1.8083 77.4221 1.7745 77.3162 1.7409C77.2102 1.7072 77.104 1.674 76.9978 1.641C76.8916 1.6081 76.7853 1.5755 76.6789 1.5432C76.5725 1.5109 76.466 1.4787 76.3595 1.447C76.2529 1.4152 76.1463 1.3835 76.0396 1.3523C75.9329 1.3212 75.8261 1.2902 75.7192 1.2597C75.6123 1.2291 75.5053 1.1986 75.3983 1.1686C75.2911 1.1387 75.1838 1.1089 75.0764 1.0796C74.9692 1.0502 74.8619 1.0209 74.7545 0.9921C74.6471 0.9634 74.5396 0.9348 74.4321 0.9067C74.3245 0.8785 74.2169 0.8505 74.1092 0.8229C74.0013 0.7954 73.8933 0.768 73.7853 0.7412C73.6774 0.7142 73.5694 0.6874 73.4614 0.6611C73.3533 0.6346 73.2452 0.6083 73.137 0.5825C73.0288 0.5569 72.9205 0.5314 72.8121 0.5065C72.7039 0.4812 72.5956 0.4563 72.4872 0.4316C72.3786 0.407 72.27 0.3826 72.1613 0.3587C72.0526 0.3348 71.9438 0.3112 71.8349 0.2879C71.7262 0.2645 71.6174 0.2413 71.5085 0.2186C71.3996 0.1957 71.2907 0.1732 71.1816 0.1509C71.0725 0.1287 70.9634 0.1069 70.8542 0.0853C70.7452 0.0638 70.636 0.0426 70.5269 0.0217ZM17.0063 16.47C16.9419 16.5346 16.8777 16.5993 16.8137 16.6642C16.7359 16.7432 16.6585 16.8224 16.5812 16.9018C16.504 16.981 16.427 17.0603 16.3503 17.1399C16.2734 17.2197 16.1968 17.2998 16.1204 17.3801C16.044 17.4603 15.968 17.5407 15.8921 17.6213C15.8162 17.7018 15.7407 17.7825 15.6654 17.8635C15.5899 17.9446 15.5147 18.0258 15.4397 18.1072C15.3647 18.1886 15.2901 18.2702 15.2156 18.3519C15.141 18.4338 15.0667 18.5159 14.9925 18.5982C14.9186 18.6804 14.8449 18.7629 14.7715 18.8455C14.6979 18.9281 14.6246 19.0108 14.5516 19.0938C14.4785 19.1769 14.4058 19.2602 14.3332 19.3437C14.2605 19.4271 14.1881 19.5108 14.1159 19.5946C14.0437 19.6785 13.9718 19.7627 13.9001 19.847C13.8284 19.9313 13.7571 20.0158 13.6859 20.1004C13.6147 20.185 13.5439 20.2698 13.4733 20.3548C13.4025 20.4399 13.332 20.5253 13.2617 20.6108C13.1916 20.6963 13.1218 20.7819 13.0522 20.8678C12.9824 20.9536 12.913 21.0396 12.8437 21.1258C12.7744 21.212 12.7055 21.2983 12.6368 21.3848C12.5681 21.4715 12.4997 21.5583 12.4315 21.6454C12.3631 21.7324 12.2951 21.8196 12.2272 21.907C12.1595 21.9943 12.0921 22.0819 12.025 22.1696C11.9577 22.2573 11.8906 22.3452 11.8238 22.4332C11.7571 22.5214 11.6908 22.6098 11.6247 22.6984C11.5584 22.7869 11.4924 22.8757 11.4267 22.9646C11.3609 23.0535 11.2955 23.1426 11.2302 23.2318C11.1649 23.321 11.1 23.4104 11.0353 23.5C10.9706 23.5896 10.9061 23.6793 10.842 23.7692C10.7778 23.8591 10.7139 23.9492 10.6502 24.0395C10.5865 24.1297 10.5231 24.2202 10.46 24.3108C10.3968 24.4016 10.334 24.4925 10.2713 24.5836C10.2086 24.6745 10.1463 24.7656 10.0842 24.8569C10.0221 24.9483 9.96025 25.04 9.89865 25.1317C9.83706 25.2233 9.77575 25.3151 9.71465 25.407L9.70344 25.4242L42.2334 60.9742L44.6954 57.7712L44.8091 57.8201ZM100.836 15.8135L76.7763 53.7635L79.5143 58.1525L108.634 25.1725C108.581 25.0926 108.527 25.0128 108.473 24.9331C108.412 24.8417 108.349 24.7504 108.287 24.6594C108.224 24.5682 108.162 24.4771 108.099 24.3862C108.036 24.2955 107.973 24.2049 107.909 24.1146C107.846 24.0242 107.782 23.934 107.718 23.844C107.654 23.7538 107.59 23.6638 107.525 23.574C107.461 23.4843 107.396 23.3948 107.331 23.3055C107.266 23.2162 107.201 23.127 107.135 23.0381C107.07 22.9491 107.004 22.8603 106.938 22.7717C106.872 22.6831 106.806 22.5946 106.739 22.5064C106.672 22.4181 106.606 22.33 106.539 22.2421C106.472 22.1543 106.404 22.0668 106.337 21.9794C106.269 21.8918 106.201 21.8044 106.133 21.7172C106.065 21.6301 105.997 21.5433 105.929 21.4566C105.86 21.3699 105.791 21.2834 105.722 21.1971C105.653 21.1107 105.584 21.0246 105.515 20.9386C105.445 20.8526 105.375 20.7668 105.305 20.6812C105.235 20.5955 105.165 20.5101 105.094 20.4248C105.024 20.3397 104.953 20.2547 104.882 20.17C104.811 20.0852 104.74 20.0006 104.669 19.9162C104.597 19.8318 104.526 19.7475 104.454 19.6635C104.382 19.5796 104.309 19.4959 104.237 19.4124C104.164 19.3288 104.092 19.2455 104.019 19.1623C103.946 19.0791 103.873 18.9961 103.8 18.9133C103.726 18.8306 103.653 18.7481 103.579 18.6658C103.505 18.5833 103.431 18.501 103.357 18.4189C103.283 18.3371 103.208 18.2555 103.133 18.174C103.059 18.0923 102.984 18.0109 102.908 17.9297C102.833 17.8486 102.758 17.7677 102.682 17.6869C102.606 17.6063 102.53 17.5259 102.454 17.4457C102.378 17.3655 102.301 17.2854 102.225 17.2056C102.148 17.1258 102.072 17.046 101.995 16.9665C101.918 16.8872 101.84 16.8079 101.763 16.729C101.685 16.65 101.607 16.5712 101.529 16.4925C101.451 16.414 101.373 16.3357 101.295 16.2576C101.216 16.1795 101.138 16.1015 101.059 16.0238C100.985 15.9513 100.912 15.879 100.837 15.8069ZM1.08625 46.3835C1.06512 46.4905 1.04429 46.5975 1.02377 46.7046C1.00315 46.8128 0.98284 46.921 0.96283 47.0293C0.94291 47.1376 0.92329 47.246 0.904 47.3545C0.88458 47.4628 0.86548 47.5712 0.84667 47.6796C0.82795 47.7881 0.80955 47.8966 0.79144 48.0052C0.77323 48.1139 0.75531 48.2226 0.73772 48.3313C0.72021 48.44 0.70299 48.5487 0.6861 48.6574C0.66929 48.7662 0.65278 48.8751 0.63659 48.984C0.62028 49.093 0.60427 49.202 0.58858 49.3111C0.57297 49.4201 0.55766 49.5291 0.54267 49.6382C0.52756 49.7472 0.51275 49.8562 0.49826 49.9653C0.48385 50.0744 0.46974 50.1836 0.45596 50.2929C0.44225 50.4022 0.42885 50.5116 0.41576 50.621C0.40255 50.7303 0.38965 50.8397 0.37706 50.949C0.36455 51.0583 0.35235 51.1676 0.34046 51.277C0.32866 51.3865 0.31715 51.496 0.30597 51.6055C0.29467 51.715 0.28366 51.8245 0.27298 51.934C0.26221 52.0436 0.25174 52.1533 0.24159 52.263C0.23169 52.3726 0.22201 52.4823 0.2127 52.592C0.2033 52.7016 0.1942 52.8113 0.18541 52.9209C0.17651 53.0307 0.16791 53.1405 0.15963 53.2503C0.15153 53.3601 0.14386 53.4699 0.13645 53.5797C0.12875 53.6895 0.12142 53.7993 0.11437 53.9091C0.10757 54.019 0.10107 54.129 0.09489 54.239C0.08859 54.3489 0.08259 54.4589 0.07691 54.5689C0.07131 54.6788 0.06601 54.7888 0.06103 54.8988C0.05593 55.0087 0.05113 55.1187 0.04665 55.2286C0.04225 55.3385 0.03815 55.4485 0.03437 55.5584C0.03067 55.6685 0.02727 55.7786 0.0242 55.8887C0.021 55.9986 0.0181 56.1085 0.0155 56.2185C0.013 56.3286 0.0108 56.4387 0.0089 56.5488C0.0071 56.6589 0.0058 56.769 0.0046 56.879C0.0032 56.9891 0.0021 57.0992 0.0013 57.2092C0.000543 57.3193 0.0002 57.4293 0 57.5394C6.6e-05 57.6186 0.000289 57.6978 0.000683 57.7769L34.6607 70.8169L37.3597 67.3049ZM117.586 47.3985L84.5662 66.2585L87.1572 70.4105L118.457 59.0105L118.461 58.8407C118.464 58.7308 118.466 58.6209 118.468 58.511C118.47 58.4009 118.472 58.2908 118.472 58.1808C118.474 58.0707 118.475 57.9606 118.475 57.8506C118.476 57.7405 118.477 57.6305 118.476 57.5204L118.476 57.1902C118.475 57.08 118.474 56.9697 118.473 56.8595C118.472 56.7895 118.471 56.7194 118.47 56.6494C118.468 56.5394 118.467 56.4293 118.464 56.3193C118.462 56.2093 118.46 56.0992 118.456 55.9892L118.446 55.6591C118.443 55.5491 118.439 55.4391 118.434 55.329L118.421 54.999C118.416 54.8892 118.411 54.7793 118.406 54.6695C118.401 54.5595 118.394 54.4495 118.388 54.3395L118.37 54.01C118.363 53.9 118.356 53.79 118.348 53.6801C118.341 53.5703 118.334 53.4605 118.326 53.3507C118.318 53.2409 118.31 53.1311 118.301 53.0213C118.293 52.9117 118.284 52.802 118.275 52.6924C118.266 52.5826 118.256 52.4728 118.246 52.3631C118.237 52.2535 118.227 52.1439 118.216 52.0343C118.206 51.9248 118.195 51.8154 118.184 51.706C118.172 51.5964 118.161 51.4868 118.15 51.3772C118.138 51.2678 118.126 51.1584 118.114 51.049C118.101 50.9396 118.089 50.8302 118.076 50.7208C118.063 50.6115 118.05 50.5023 118.036 50.3931C118.023 50.2838 118.009 50.1746 117.995 50.0655C117.981 49.9563 117.966 49.847 117.952 49.7379C117.937 49.6288 117.921 49.5198 117.906 49.4108C117.891 49.3017 117.875 49.1927 117.859 49.0837C117.843 48.9748 117.827 48.866 117.81 48.7572C117.793 48.6483 117.776 48.5395 117.759 48.4307C117.742 48.322 117.724 48.2133 117.707 48.1047C117.689 47.996 117.67 47.8874 117.652 47.7788C117.633 47.6703 117.614 47.5618 117.595 47.4534L117.585 47.3997ZM4.78625 80.5985C4.82458 80.687 4.86313 80.7754 4.90195 80.8637C4.94638 80.9648 4.99111 81.0657 5.03615 81.1665C5.08093 81.2672 5.126 81.3678 5.17135 81.4682C5.21682 81.5686 5.26256 81.6688 5.30855 81.7689C5.35453 81.8693 5.40079 81.9695 5.44735 82.0696C5.49401 82.1694 5.54097 82.2691 5.58815 82.3687C5.63533 82.4685 5.6828 82.5682 5.73055 82.6678C5.77824 82.7671 5.82622 82.8663 5.87445 82.9653C5.92283 83.0644 5.97149 83.1634 6.02045 83.2623C6.06934 83.3612 6.11852 83.4601 6.16795 83.5587C6.21736 83.6573 6.26705 83.7558 6.31705 83.8541C6.36697 83.9525 6.41715 84.0508 6.46765 84.1489C6.51826 84.247 6.56915 84.3449 6.62035 84.4427C6.67148 84.5404 6.72285 84.638 6.77455 84.7354C6.8262 84.8329 6.87815 84.9303 6.93035 85.0276C6.9825 85.1248 7.03495 85.2218 7.08765 85.3187C7.1405 85.4155 7.19365 85.5122 7.24705 85.6088C7.3004 85.7055 7.35405 85.802 7.40795 85.8984C7.46182 85.9947 7.51595 86.0909 7.57035 86.1869C7.62473 86.2829 7.67935 86.3787 7.73435 86.4743C7.78942 86.5699 7.84475 86.6654 7.90035 86.7607C7.95576 86.8561 8.01145 86.9514 8.06735 87.0466C8.12345 87.1417 8.17985 87.2366 8.23645 87.3314C8.29306 87.4262 8.34995 87.5207 8.40705 87.6151C8.46418 87.7097 8.52155 87.8041 8.57925 87.8983C8.63689 87.9923 8.69475 88.0862 8.75295 88.1799C8.81127 88.2738 8.86985 88.3675 8.92875 88.461C8.98742 88.5545 9.04635 88.6479 9.10555 88.7411C9.16491 88.8343 9.22455 88.9273 9.28445 89.0201C9.34414 89.1129 9.40415 89.2056 9.46435 89.2981C9.52473 89.3906 9.58535 89.4829 9.64625 89.575C9.70715 89.6671 9.76835 89.7591 9.82975 89.8508C9.89116 89.9426 9.95285 90.0342 10.0147 90.1256C10.0767 90.217 10.1388 90.3083 10.2013 90.3993C10.2638 90.4905 10.3265 90.5816 10.3894 90.6725C10.4524 90.7632 10.5156 90.8538 10.579 90.9441C10.6425 91.0345 10.7062 91.1247 10.7702 91.2147L10.7844 91.2342L20.9644 88.9762L21.1666 88.7105L20.9248 88.7122L27.2438 80.4892ZM93.7163 80.9131L98.6203 89.0571L107.766 91.1211C107.789 91.0891 107.812 91.0571 107.834 91.0251C107.898 90.9347 107.962 90.8441 108.025 90.7533C108.088 90.6627 108.151 90.5719 108.213 90.481C108.276 90.3901 108.339 90.299 108.401 90.2077C108.463 90.1162 108.525 90.0246 108.586 89.9329C108.648 89.8411 108.709 89.7492 108.77 89.657C108.832 89.565 108.892 89.4729 108.953 89.3806C109.013 89.2881 109.074 89.1955 109.134 89.1027C109.194 89.0101 109.253 88.9173 109.313 88.8243C109.373 88.7311 109.432 88.6378 109.491 88.5444C109.55 88.4511 109.608 88.3576 109.667 88.264C109.725 88.1703 109.783 88.0765 109.841 87.9826C109.899 87.8884 109.957 87.7941 110.014 87.6996C110.071 87.6052 110.129 87.5108 110.185 87.4161C110.242 87.3214 110.299 87.2266 110.355 87.1316C110.411 87.0366 110.467 86.9414 110.523 86.8461C110.579 86.7509 110.634 86.6556 110.69 86.5601C110.745 86.4644 110.8 86.3686 110.854 86.2726C110.909 86.1767 110.963 86.0807 111.017 85.9846C111.072 85.8884 111.125 85.792 111.179 85.6955C111.232 85.5989 111.286 85.5023 111.339 85.4054C111.392 85.3085 111.444 85.2115 111.497 85.1143C111.549 85.0172 111.602 84.9201 111.653 84.8227C111.705 84.7253 111.757 84.6278 111.808 84.5301C111.86 84.4323 111.911 84.3345 111.962 84.2365C112.012 84.1386 112.063 84.0406 112.113 83.9424C112.163 83.8441 112.213 83.7458 112.263 83.6473C112.313 83.5487 112.362 83.45 112.411 83.3511C112.46 83.2523 112.509 83.1535 112.557 83.0544C112.606 82.9553 112.654 82.8561 112.702 82.7567C112.75 82.6573 112.798 82.5577 112.845 82.458C112.892 82.3584 112.939 82.2587 112.986 82.1588C113.033 82.0588 113.08 81.9588 113.126 81.8586C113.172 81.7585 113.218 81.6583 113.264 81.5579C113.31 81.4576 113.355 81.3572 113.4 81.2567L113.402 81.2536Z" sodipodi:nodetypes="cccccccccccccccccccccccccccccccccccccccccccccccccccccccccccccccccccccccccccccccccccccccccccccccccccccccccccccccccccccccccccccccccccccccccccccccccccccccccccccccccccccccccccccccccccccccccccccccccccccccccccccccccccccccccccccccccccccccccccccccccccccccccccccccccccccccccccccccccccccccccccccccccccccccccccccccccccccccccccccccccccccccc"/>
  <path id="path30" transform="matrix(2.7103308575287 0 0 2.7103308575287 51.8715316002701 108.96316043214)" fill="#ffffff" stroke-opacity="0" stroke="#000000" stroke-width="0" stroke-linecap="square" stroke-linejoin="bevel" d="M50.807 0L33.557 19.7L25.66 16.212L0 49.202L2.235 49.2044C2.235 49.2044 18.215 28.7744 26.235 18.4944L34.054 21.9494L50.534 3.1194C59.661 18.6494 69.504 33.5994 78.464 49.2194L80.691 49.2061Z" sodipodi:nodetypes="ccccccccccc"/>
  <path id="path32" transform="matrix(2.7103308575287 0 0 2.7103308575287 64.1520407157326 124.927009182984)" fill="#ffffff" stroke-opacity="0" stroke="#000000" stroke-width="0" stroke-linecap="square" stroke-linejoin="bevel" d="M45.976 0L29.956 18.37L22.13 15.12L0 43.3L2.445 43.3154L22.725 17.3754L30.485 20.5954L45.705 3.14543L69.645 43.3854L72.015 43.3397Z" sodipodi:nodetypes="ccccccccccc"/>
  <path id="path34" transform="matrix(2.7103308575287 0 0 2.7103308575287 77.2049941255908 142.324622957461)" fill="#ffffff" stroke-opacity="0" stroke="#000000" stroke-width="0" stroke-linecap="square" stroke-linejoin="bevel" d="M0 36.861L18.48 13.301L26.398 16.52L40.778 0L62.368 36.89Z" sodipodi:nodetypes="cccccc"/>
 </g>
</svg>
