<?xml version="1.0" standalone="no"?>
<!DOCTYPE svg PUBLIC "-//W3C//DTD SVG 20010904//EN" "http://www.w3.org/TR/2001/REC-SVG-20010904/DTD/svg10.dtd">
<!-- Created using Krita: https://krita.org -->
<svg xmlns="http://www.w3.org/2000/svg" 
    xmlns:xlink="http://www.w3.org/1999/xlink"
    xmlns:krita="http://krita.org/namespaces/svg/krita"
    xmlns:sodipodi="http://sodipodi.sourceforge.net/DTD/sodipodi-0.dtd"
    width="460.8pt"
    height="259.2pt"
    viewBox="0 0 460.8 259.2">
<defs/>
<g id="group0" transform="translate(248.577424705074, 54.4914991771134)" fill="none">
  <path id="shape0" transform="matrix(-1 0 0 1 25.3438237962761 2.0831598694194)" sodipodi:type="arc" sodipodi:rx="36" sodipodi:ry="36" sodipodi:cx="-20.6487517086377" sodipodi:cy="21.6653408334738" sodipodi:start="5.63741348394168" sodipodi:end="0.959931088596881" sodipodi:open="true" d="M0 51.1548C7.9996 45.5534 13.3803 36.9425 14.908 27.297C16.4357 17.6515 13.9793 7.79924 8.10213 -5.32907e-15" fill="none" stroke="#ffffff" stroke-width="1.92" stroke-linecap="square" stroke-linejoin="bevel"/>
  <path id="shape1" transform="matrix(-1 0 0 1 33.7451433164931 27.7603371045654)" sodipodi:type="arc" sodipodi:rx="15.7432319492779" sodipodi:ry="15.74321842882" sodipodi:cx="15.7433605837183" sodipodi:cy="11.1310420394158" sodipodi:start="2.1055021017567" sodipodi:end="3.92689250562464" sodipodi:open="true" d="M4.61012 0C1.1715 3.43929 -0.484513 8.27477 0.12374 13.1C0.731993 17.9252 3.53622 22.1985 7.7208 24.6768" fill="none" stroke="#ffffff" stroke-width="1.92" stroke-linecap="square" stroke-linejoin="bevel"/>
  <path id="shape2" transform="matrix(-1 0 0 1 27.8437058985231 3.7932404958793)" sodipodi:type="arc" sodipodi:rx="24.7642790264959" sodipodi:ry="24.7626599500863" sodipodi:cx="-15.2979858121002" sodipodi:cy="3.37186285691369" sodipodi:start="6.14659373407891" sodipodi:end="0.904925659382565" sodipodi:open="true" d="M0 22.8447C6.91793 17.4106 10.4335 8.71468 9.23564 5.8055e-16" fill="none" stroke="#ffffff" stroke-width="1.92" stroke-linecap="square" stroke-linejoin="bevel"/>
  <path id="shape3" transform="matrix(-1 0 0 1 13.692529056006 0.901902064196904)" sodipodi:type="arc" sodipodi:rx="25.56" sodipodi:ry="25.56" sodipodi:cx="-11.8700462020753" sodipodi:cy="22.6365987542431" sodipodi:start="5.19534519770299" sodipodi:end="0.249750465021778" sodipodi:open="true" d="M12.8969 28.9541C15.8236 17.4805 10.4867 5.49893 8.64877e-16 1.51461e-15" fill="none" stroke="#ffffff" stroke-width="1.92" stroke-linecap="square" stroke-linejoin="bevel"/>
  <path id="shape4" transform="matrix(-1 0 0 1 18.6647078518781 0)" sodipodi:type="arc" sodipodi:rx="2.44539286965749" sodipodi:ry="2.44474299380731" sodipodi:cx="2.44541450020244" sodipodi:cy="2.44476089233785" sodipodi:start="3.0562371704276" sodipodi:end="5.0999161975817" sodipodi:open="true" d="M3.36953 0.181305C2.58114 -0.140406 1.68211 -0.0289367 0.996217 0.475571C0.31032 0.980078 -0.0636709 1.80497 0.00892425 2.65318" fill="none" stroke="#ffffff" stroke-width="1.92" stroke-linecap="square" stroke-linejoin="bevel"/>
 </g><g id="group01" transform="translate(178.147431978834, 54.4914991771134)" fill="none">
  <path id="shape01" transform="translate(8.49131951981465, 2.0831598694194)" sodipodi:type="arc" sodipodi:rx="36" sodipodi:ry="36" sodipodi:cx="-20.6487517086377" sodipodi:cy="21.6653408334738" sodipodi:start="5.63741348394168" sodipodi:end="0.959931088596881" sodipodi:open="true" d="M0 51.1548C7.9996 45.5534 13.3803 36.9425 14.908 27.297C16.4357 17.6515 13.9793 7.79924 8.10213 -5.32907e-15" fill="none" stroke="#ffffff" stroke-width="1.92" stroke-linecap="square" stroke-linejoin="bevel"/>
  <path id="shape11" transform="translate(0, 27.7603371045654)" sodipodi:type="arc" sodipodi:rx="15.7432319492779" sodipodi:ry="15.74321842882" sodipodi:cx="15.7433605837183" sodipodi:cy="11.1310420394158" sodipodi:start="2.1055021017567" sodipodi:end="3.92689250562464" sodipodi:open="true" d="M4.61012 0C1.1715 3.43929 -0.484513 8.27477 0.12374 13.1C0.731993 17.9252 3.53622 22.1985 7.7208 24.6768" fill="none" stroke="#ffffff" stroke-width="1.92" stroke-linecap="square" stroke-linejoin="bevel"/>
  <path id="shape21" transform="translate(5.90143741797101, 3.7932404958793)" sodipodi:type="arc" sodipodi:rx="24.7642790264959" sodipodi:ry="24.7626599500863" sodipodi:cx="-15.2979858121002" sodipodi:cy="3.37186285691369" sodipodi:start="6.14659373407891" sodipodi:end="0.904925659382565" sodipodi:open="true" d="M0 22.8447C6.91793 17.4106 10.4335 8.71468 9.23564 5.8055e-16" fill="none" stroke="#ffffff" stroke-width="1.92" stroke-linecap="square" stroke-linejoin="bevel"/>
  <path id="shape31" transform="translate(20.1426142600857, 0.901902064196904)" sodipodi:type="arc" sodipodi:rx="25.56" sodipodi:ry="25.56" sodipodi:cx="-11.8700462020753" sodipodi:cy="22.6365987542431" sodipodi:start="5.19534519770299" sodipodi:end="0.249750465021778" sodipodi:open="true" d="M12.8969 28.9541C15.8236 17.4805 10.4867 5.49893 8.64877e-16 1.51461e-15" fill="none" stroke="#ffffff" stroke-width="1.92" stroke-linecap="square" stroke-linejoin="bevel"/>
  <path id="shape41" transform="translate(15.080435464615, 0)" sodipodi:type="arc" sodipodi:rx="2.44539286965749" sodipodi:ry="2.44474299380731" sodipodi:cx="2.44541450020244" sodipodi:cy="2.44476089233785" sodipodi:start="3.0562371704276" sodipodi:end="5.0999161975817" sodipodi:open="true" d="M3.36953 0.181305C2.58114 -0.140406 1.68211 -0.0289367 0.996217 0.475571C0.31032 0.980078 -0.0636709 1.80497 0.00892425 2.65318" fill="none" stroke="#ffffff" stroke-width="1.92" stroke-linecap="square" stroke-linejoin="bevel"/>
 </g><g id="group03" transform="translate(180.424786642605, 80.1882979343388)" fill="none">
  <path id="shape04" transform="translate(-4.82094719700399e-07, 27.6863650531184)" fill="none" stroke="#ffffff" stroke-width="1.92" stroke-linecap="round" stroke-linejoin="bevel" d="M5.25458 0C4.39597 1.72759 3.63124 3.51775 2.96798 5.36509C-4.09667 25.0419 1.69823 48.4917 17.7135 61.9302" sodipodi:nodetypes="ccc"/>
  <path id="shape12" transform="translate(4.04386256302959, 9.14283786579534)" fill="none" stroke="#ffffff" stroke-width="1.92" stroke-linecap="round" stroke-linejoin="bevel" d="M79.5411 79.4135C92.7199 66.2347 95.8523 45.6649 88.72 28.4459C81.5877 11.227 64.7852 -4.39545e-14 46.1476 1.28898e-28C27.51 4.39545e-14 10.7076 11.227 3.57526 28.4459C-3.55705 45.6649 0.130355 66.9397 13.3091 80.1185" sodipodi:nodetypes="ccccc"/>
  <path id="shape012" transform="translate(83.0620000000004, 26.8682038392114)" fill="none" stroke="#ffffff" stroke-width="1.92" stroke-linecap="round" stroke-linejoin="bevel" d="M0 62.1976C15.7783 48.4816 20.978 24.9164 13.5714 5.3658C12.8704 3.51551 12.0673 1.72511 11.17 0" sodipodi:nodetypes="ccc"/>
  <path id="shape022" transform="translate(31.3558000000004, -3.93458776670741e-09)" fill="none" stroke="#ffffff" stroke-width="1.92" stroke-linecap="round" stroke-linejoin="bevel" d="M37.1419 3.57089C31.2249 1.20152 24.7984 -0.0560165 18.1601 0.00191564C11.8056 0.0573702 5.6663 1.31461 0 3.5905" sodipodi:nodetypes="ccc"/>
 </g><g id="group1" transform="translate(180.477474985946, 81.8160147895494)" fill="none">
  <path id="shape02" transform="translate(3.79458922943621, 8.45224497191255)" fill="none" stroke="#ffffff" stroke-width="1.92" stroke-linecap="round" stroke-linejoin="bevel" d="M79.7614 78.3935C92.9402 65.2147 95.8326 45.6649 88.7003 28.4459C81.568 11.227 64.7656 5.70613e-15 46.1279 8.50715e-31C27.4903 -5.70613e-15 10.6879 11.227 3.55557 28.4459C-3.57674 45.6649 0.185668 65.7847 13.3645 78.9635" sodipodi:nodetypes="ccccc"/>
  <path id="shape011" transform="translate(0, 25.4773291750536)" sodipodi:type="arc" sodipodi:rx="49.9199972672175" sodipodi:ry="49.9203661116319" sodipodi:cx="49.922616483317" sodipodi:cy="24.4430369771168" sodipodi:start="2.26892802759263" sodipodi:end="3.6532701432285" sodipodi:open="true" d="M6.39615 0C-5.35593 20.9276 -0.551517 47.2563 17.8347 62.6843" fill="none" stroke="#ffffff" stroke-width="1.92" stroke-linecap="round" stroke-linejoin="bevel"/>
  <path id="shape021" transform="translate(30.1307788846519, 0)" sodipodi:type="arc" sodipodi:rx="49.9199972672175" sodipodi:ry="49.9203661116319" sodipodi:cx="19.7918375986653" sodipodi:cy="49.9203661521701" sodipodi:start="4.30471922977226" sodipodi:end="5.12387530199104" sodipodi:open="true" d="M39.7584 4.16699C27.0879 -1.36249 12.6916 -1.38996 -6.60745e-16 4.09111" fill="none" stroke="#ffffff" stroke-width="1.92" stroke-linecap="round" stroke-linejoin="bevel"/>
  <path id="shape03" transform="translate(82.673081417657, 25.4494472256146)" sodipodi:type="arc" sodipodi:rx="49.9199972672175" sodipodi:ry="49.9203661116319" sodipodi:cx="-32.7504649343395" sodipodi:cy="24.470918926555" sodipodi:start="5.77086713229703" sodipodi:end="0.855211333477222" sodipodi:open="true" d="M0 62.1463C17.8759 46.6069 22.3711 20.6449 10.7603 3.45674e-16" fill="none" stroke="#ffffff" stroke-width="1.92" stroke-linecap="round" stroke-linejoin="bevel"/>
 </g><g id="group2" transform="translate(248.741121221387, 53.3634128513515)" fill="none">
  <path id="shape05" transform="matrix(-1 0 0 1 25.3451272797629 2.0831598694194)" sodipodi:type="arc" sodipodi:rx="36" sodipodi:ry="36" sodipodi:cx="-20.6487517086377" sodipodi:cy="21.6653408334738" sodipodi:start="5.63741348394168" sodipodi:end="0.959931088596881" sodipodi:open="true" d="M0 51.1548C7.9996 45.5534 13.3803 36.9425 14.908 27.297C16.4357 17.6515 13.9793 7.79924 8.10213 -5.32907e-15" fill="none" stroke="#ffffff" stroke-width="1.92" stroke-linecap="square" stroke-linejoin="bevel"/>
  <path id="shape13" transform="matrix(-1 0 0 1 33.7464467999799 27.7603371045654)" sodipodi:type="arc" sodipodi:rx="15.7432319492779" sodipodi:ry="15.74321842882" sodipodi:cx="15.7433605837183" sodipodi:cy="11.1310420394158" sodipodi:start="2.1055021017567" sodipodi:end="3.92689250562464" sodipodi:open="true" d="M4.61012 0C1.1715 3.43929 -0.484513 8.27477 0.12374 13.1C0.731993 17.9252 3.53622 22.1985 7.7208 24.6768" fill="none" stroke="#ffffff" stroke-width="1.92" stroke-linecap="square" stroke-linejoin="bevel"/>
  <path id="shape22" transform="matrix(-1 0 0 1 27.8450093820099 3.7932404958793)" sodipodi:type="arc" sodipodi:rx="24.7642790264959" sodipodi:ry="24.7626599500863" sodipodi:cx="-15.2979858121002" sodipodi:cy="3.37186285691369" sodipodi:start="6.14659373407891" sodipodi:end="0.904925659382565" sodipodi:open="true" d="M0 22.8447C6.91793 17.4106 10.4335 8.71468 9.23564 5.8055e-16" fill="none" stroke="#ffffff" stroke-width="1.92" stroke-linecap="square" stroke-linejoin="bevel"/>
  <path id="shape32" transform="matrix(-1 0 0 1 13.6938325394928 0.901902064196904)" sodipodi:type="arc" sodipodi:rx="25.56" sodipodi:ry="25.56" sodipodi:cx="-11.8700462020753" sodipodi:cy="22.6365987542431" sodipodi:start="5.19534519770299" sodipodi:end="0.34195087837094" sodipodi:open="true" d="M12.2101 31.2075C16.4783 19.2159 11.2728 5.91115 -2.21945e-14 -1.3389e-14" fill="none" stroke="#ffffff" stroke-width="1.92" stroke-linecap="square" stroke-linejoin="bevel"/>
  <path id="shape42" transform="matrix(-1 0 0 1 18.6660113353649 0)" sodipodi:type="arc" sodipodi:rx="2.44539286965749" sodipodi:ry="2.44474299380731" sodipodi:cx="2.44541450020244" sodipodi:cy="2.44476089233785" sodipodi:start="3.0562371704276" sodipodi:end="5.0999161975817" sodipodi:open="true" d="M3.36953 0.181305C2.58114 -0.140406 1.68211 -0.0289367 0.996217 0.475571C0.31032 0.980078 -0.0636709 1.80497 0.00892425 2.65318" fill="none" stroke="#ffffff" stroke-width="1.92" stroke-linecap="square" stroke-linejoin="bevel"/>
 </g><g id="group011" transform="translate(178.432431972733, 53.5584128370688)" fill="none">
  <path id="shape013" transform="translate(8.49131951981465, 2.0831598694194)" sodipodi:type="arc" sodipodi:rx="36" sodipodi:ry="36" sodipodi:cx="-20.6487517086377" sodipodi:cy="21.6653408334738" sodipodi:start="5.63741348394168" sodipodi:end="0.959931088596881" sodipodi:open="true" d="M0 51.1548C7.9996 45.5534 13.3803 36.9425 14.908 27.297C16.4357 17.6515 13.9793 7.79924 8.10213 -5.32907e-15" fill="none" stroke="#ffffff" stroke-width="1.92" stroke-linecap="square" stroke-linejoin="bevel"/>
  <path id="shape111" transform="translate(0, 27.7603371045654)" sodipodi:type="arc" sodipodi:rx="15.7432319492779" sodipodi:ry="15.74321842882" sodipodi:cx="15.7433605837183" sodipodi:cy="11.1310420394158" sodipodi:start="2.1055021017567" sodipodi:end="3.92689250562464" sodipodi:open="true" d="M4.61012 0C1.1715 3.43929 -0.484513 8.27477 0.12374 13.1C0.731993 17.9252 3.53622 22.1985 7.7208 24.6768" fill="none" stroke="#ffffff" stroke-width="1.92" stroke-linecap="square" stroke-linejoin="bevel"/>
  <path id="shape211" transform="translate(5.90143741797101, 3.7932404958793)" sodipodi:type="arc" sodipodi:rx="24.7642790264959" sodipodi:ry="24.7626599500863" sodipodi:cx="-15.2979858121002" sodipodi:cy="3.37186285691369" sodipodi:start="6.14659373407891" sodipodi:end="0.904925659382565" sodipodi:open="true" d="M0 22.8447C6.91793 17.4106 10.4335 8.71468 9.23564 5.8055e-16" fill="none" stroke="#ffffff" stroke-width="1.92" stroke-linecap="square" stroke-linejoin="bevel"/>
  <path id="shape311" transform="translate(20.1426142600857, 0.901902064196904)" sodipodi:type="arc" sodipodi:rx="25.56" sodipodi:ry="25.56" sodipodi:cx="-11.8700462020753" sodipodi:cy="22.6365987542431" sodipodi:start="5.19534519770299" sodipodi:end="0.249750465021778" sodipodi:open="true" d="M12.8969 28.9541C15.8236 17.4805 10.4867 5.49893 8.64877e-16 1.51461e-15" fill="none" stroke="#ffffff" stroke-width="1.92" stroke-linecap="square" stroke-linejoin="bevel"/>
  <path id="shape411" transform="translate(15.080435464615, 0)" sodipodi:type="arc" sodipodi:rx="2.44539286965749" sodipodi:ry="2.44474299380731" sodipodi:cx="2.44541450020244" sodipodi:cy="2.44476089233785" sodipodi:start="3.0562371704276" sodipodi:end="5.0999161975817" sodipodi:open="true" d="M3.36953 0.181305C2.58114 -0.140406 1.68211 -0.0289367 0.996217 0.475571C0.31032 0.980078 -0.0636709 1.80497 0.00892425 2.65318" fill="none" stroke="#ffffff" stroke-width="1.92" stroke-linecap="square" stroke-linejoin="bevel"/>
 </g>
</svg>
