<?xml version="1.0" standalone="no"?>
<!DOCTYPE svg PUBLIC "-//W3C//DTD SVG 20010904//EN" "http://www.w3.org/TR/2001/REC-SVG-20010904/DTD/svg10.dtd">
<!-- Created using Krita: https://krita.org -->
<svg xmlns="http://www.w3.org/2000/svg" 
    xmlns:xlink="http://www.w3.org/1999/xlink"
    xmlns:krita="http://krita.org/namespaces/svg/krita"
    xmlns:sodipodi="http://sodipodi.sourceforge.net/DTD/sodipodi-0.dtd"
    width="99.12pt"
    height="62.16pt"
    viewBox="0 0 99.12 62.16">
<defs/>
<path id="shape01" transform="translate(6.23905, 0.240924999999999)" fill="#1e1e2e" fill-rule="evenodd" stroke="#b7bdf8" stroke-width="0.48" stroke-linecap="square" stroke-linejoin="bevel" d="M0.00187957 61.6781L0 0L20.4084 3.8953e-09L25.5665 5.15438L86.6419 5.28188L86.6419 61.68Z" sodipodi:nodetypes="ccccccc"/><g id="group0" transform="translate(9.04499979031337, 3.50000067844624)" fill="none">
  <path id="shape1" transform="translate(0.155625000000001, -1.40625)" fill="#b7bdf8" stroke-opacity="0" stroke="#000000" stroke-width="0" stroke-linecap="square" stroke-linejoin="bevel" d="M0.781875 1.71938L0.781875 1.56188L0.62625 1.56188L0.62625 1.71938L0.46875 1.71938L0.313125 1.71938L0.1575 1.71938L0.1575 1.56188L0.313125 1.56188L0.46875 1.56188L0.62625 1.56188L0.62625 1.40625L0.781875 1.40625L0.781875 1.25062L0.781875 1.09312L0.781875 0.9375L0.781875 0.781875L0.781875 0.624375L0.781875 0.46875L0.937495 0.46875L0.937495 0.624375L0.937495 0.781875L0.937495 0.9375L0.937495 1.09312L0.937495 1.25062L0.937495 1.40625L0.937495 1.56188L0.937495 1.71938L0.781875 1.71938M0.1575 1.56188L0 1.56188L0 1.40625L0 1.25062L0 1.09312L0 0.9375L0 0.781875L0 0.624375L0 0.46875L0.1575 0.46875L0.1575 0.624375L0.1575 0.781875L0.1575 0.9375L0.1575 1.09312L0.1575 1.25062L0.1575 1.40625L0.1575 1.56188M2.03249 0.781875L2.03249 0.624375L2.18812 0.624375L2.18812 0.781875L2.03249 0.781875M1.87688 1.56188L2.03249 1.56188L2.03249 1.71938L1.87688 1.71938L1.71937 1.71938L1.56374 1.71938L1.40813 1.71938L1.40813 1.56188L1.56374 1.56188L1.71937 1.56188L1.87688 1.56188M2.03249 1.56188L2.03249 1.40625L2.03249 1.25062L2.18812 1.25062L2.18812 1.40625L2.18812 1.56188L2.03249 1.56188M1.40813 1.56188L1.25062 1.56188L1.25062 1.40625L1.40813 1.40625L1.40813 1.56188M2.03249 1.25062L1.87688 1.25062L1.71937 1.25062L1.71937 1.09312L1.87688 1.09312L2.03249 1.09312L2.03249 1.25062M1.71937 1.09312L1.56374 1.09312L1.40813 1.09312L1.40813 0.9375L1.56374 0.9375L1.71937 0.9375L1.71937 1.09312M1.40813 0.9375L1.25062 0.9375L1.25062 0.781875L1.25062 0.624375L1.40813 0.624375L1.40813 0.781875L1.40813 0.9375M2.03249 0.624375L1.87688 0.624375L1.71937 0.624375L1.56374 0.624375L1.40813 0.624375L1.40813 0.46875L1.56374 0.46875L1.71937 0.46875L1.87688 0.46875L2.03249 0.46875L2.03249 0.624375M3.1275 1.56188L3.28313 1.56188L3.28313 1.71938L3.1275 1.71938L2.96999 1.71938L2.81437 1.71938L2.65875 1.71938L2.65875 1.56188L2.81437 1.56188L2.96999 1.56188L3.1275 1.56188M3.28313 1.56188L3.28313 1.40625L3.43874 1.40625L3.43874 1.56188L3.28313 1.56188M2.65875 1.56188L2.50124 1.56188L2.50124 1.40625L2.50124 1.25062L2.50124 1.09312L2.50124 0.9375L2.50124 0.781875L2.50124 0.624375L2.65875 0.624375L2.65875 0.781875L2.65875 0.9375L2.81437 0.9375L2.96999 0.9375L3.1275 0.9375L3.28313 0.9375L3.28313 0.781875L3.28313 0.624375L3.43874 0.624375L3.43874 0.781875L3.43874 0.9375L3.43874 1.09312L3.28313 1.09312L3.1275 1.09312L2.96999 1.09312L2.81437 1.09312L2.65875 1.09312L2.65875 1.25062L2.65875 1.40625L2.65875 1.56188M3.28313 0.624375L3.1275 0.624375L2.96999 0.624375L2.81437 0.624375L2.65875 0.624375L2.65875 0.46875L2.81437 0.46875L2.96999 0.46875L3.1275 0.46875L3.28313 0.46875L3.28313 0.624375M3.75187 1.71938L3.75187 1.56188L3.75187 1.40625L3.75187 1.25062L3.75187 1.09312L3.75187 0.9375L3.75187 0.781875L3.75187 0.624375L3.75187 0.46875L3.90938 0.46875L3.90938 0.624375L4.06501 0.624375L4.06501 0.781875L3.90938 0.781875L3.90938 0.9375L3.90938 1.09312L3.90938 1.25062L3.90938 1.40625L3.90938 1.56188L3.90938 1.71938L3.75187 1.71938M4.53376 0.9375L4.53376 0.781875L4.53376 0.624375L4.68938 0.624375L4.68938 0.781875L4.68938 0.9375L4.53376 0.9375M4.53376 0.624375L4.37813 0.624375L4.22063 0.624375L4.06501 0.624375L4.06501 0.46875L4.22063 0.46875L4.37813 0.46875L4.53376 0.46875L4.53376 0.624375M5.78438 1.56188L5.94 1.56188L5.94 1.71938L5.78438 1.71938L5.62875 1.71938L5.47125 1.71938L5.31563 1.71938L5.31563 1.56188L5.47125 1.56188L5.62875 1.56188L5.78438 1.56188M5.31563 1.56188L5.16 1.56188L5.16 1.40625L5.31563 1.40625L5.31563 1.56188M5.78438 1.40625L5.62875 1.40625L5.47125 1.40625L5.47125 1.25062L5.62875 1.25062L5.78438 1.25062L5.78438 1.09312L5.78438 0.9375L5.78438 0.781875L5.62875 0.781875L5.62875 0.624375L5.78438 0.624375L5.78438 0.46875L5.78438 0.31313L5.94 0.31313L5.94 0.46875L5.94 0.624375L5.94 0.781875L5.94 0.9375L5.94 1.09312L5.94 1.25062L5.94 1.40625L5.78438 1.40625M5.16 1.40625L5.0025 1.40625L5.0025 1.25062L5.0025 1.09312L5.0025 0.9375L5.0025 0.781875L5.0025 0.624375L5.0025 0.46875L5.16 0.46875L5.16 0.624375L5.16 0.781875L5.16 0.9375L5.16 1.09312L5.16 1.25062L5.16 1.40625M5.47125 1.25062L5.31563 1.25062L5.31563 1.09312L5.31563 0.9375L5.31563 0.781875L5.31563 0.624375L5.47125 0.624375L5.47125 0.781875L5.47125 0.9375L5.47125 1.09312L5.47125 1.25062M5.62875 0.624375L5.47125 0.624375L5.47125 0.46875L5.62875 0.46875L5.62875 0.624375M5.16 0.46875L5.16 0.31313L5.31563 0.31313L5.31563 0.46875L5.16 0.46875M5.78438 0.31313L5.62875 0.31313L5.47125 0.31313L5.31563 0.31313L5.31563 0.15563L5.47125 0.15563L5.62875 0.15563L5.78438 0.15563L5.78438 0.31313M7.035 0.781875L7.035 0.624375L7.19063 0.624375L7.19063 0.781875L7.035 0.781875M6.87938 1.56188L7.035 1.56188L7.035 1.71938L6.87938 1.71938L6.72188 1.71938L6.56625 1.71938L6.41063 1.71938L6.41063 1.56188L6.56625 1.56188L6.72188 1.56188L6.87938 1.56188M7.035 1.56188L7.035 1.40625L7.035 1.25062L7.19063 1.25062L7.19063 1.40625L7.19063 1.56188L7.035 1.56188M6.41063 1.56188L6.25313 1.56188L6.25313 1.40625L6.41063 1.40625L6.41063 1.56188M7.035 1.25062L6.87938 1.25062L6.72188 1.25062L6.72188 1.09312L6.87938 1.09312L7.035 1.09312L7.035 1.25062M6.72188 1.09312L6.56625 1.09312L6.41063 1.09312L6.41063 0.9375L6.56625 0.9375L6.72188 0.9375L6.72188 1.09312M6.41063 0.9375L6.25313 0.9375L6.25313 0.781875L6.25313 0.624375L6.41063 0.624375L6.41063 0.781875L6.41063 0.9375M7.035 0.624375L6.87938 0.624375L6.72188 0.624375L6.56625 0.624375L6.41063 0.624375L6.41063 0.46875L6.56625 0.46875L6.72188 0.46875L6.87938 0.46875L7.035 0.46875L7.035 0.624375M8.28562 1.71938L8.28562 1.56188L8.28562 1.40625L8.28562 1.25062L8.28562 1.09312L8.28562 0.9375L8.28562 0.781875L8.28562 0.624375L8.44125 0.624375L8.44125 0.781875L8.44125 0.9375L8.44125 1.09312L8.44125 1.25062L8.44125 1.40625L8.44125 1.56188L8.44125 1.71938L8.28562 1.71938M7.50375 1.71938L7.50375 1.56188L7.50375 1.40625L7.50375 1.25062L7.50375 1.09312L7.50375 0.9375L7.50375 0.781875L7.50375 0.624375L7.50375 0.46875L7.50375 0.31313L7.50375 0.15563L7.50375 0L7.66125 0L7.66125 0.15563L7.66125 0.31313L7.66125 0.46875L7.66125 0.624375L7.81688 0.624375L7.81688 0.781875L7.66125 0.781875L7.66125 0.9375L7.66125 1.09312L7.66125 1.25062L7.66125 1.40625L7.66125 1.56188L7.66125 1.71938L7.50375 1.71938M8.28562 0.624375L8.12999 0.624375L7.97249 0.624375L7.81688 0.624375L7.81688 0.46875L7.97249 0.46875L8.12999 0.46875L8.28562 0.46875L8.28562 0.624375M9.38063 1.56188L9.53624 1.56188L9.53624 1.71938L9.38063 1.71938L9.22312 1.71938L9.06749 1.71938L8.91188 1.71938L8.91188 1.56188L9.06749 1.56188L9.22312 1.56188L9.38063 1.56188M9.53624 1.56188L9.53624 1.40625L9.69187 1.40625L9.69187 1.56188L9.53624 1.56188M8.91188 1.56188L8.75437 1.56188L8.75437 1.40625L8.75437 1.25062L8.75437 1.09312L8.75437 0.9375L8.75437 0.781875L8.75437 0.624375L8.91188 0.624375L8.91188 0.781875L8.91188 0.9375L9.06749 0.9375L9.22312 0.9375L9.38063 0.9375L9.53624 0.9375L9.53624 0.781875L9.53624 0.624375L9.69187 0.624375L9.69187 0.781875L9.69187 0.9375L9.69187 1.09312L9.53624 1.09312L9.38063 1.09312L9.22312 1.09312L9.06749 1.09312L8.91188 1.09312L8.91188 1.25062L8.91188 1.40625L8.91188 1.56188M9.53624 0.624375L9.38063 0.624375L9.22312 0.624375L9.06749 0.624375L8.91188 0.624375L8.91188 0.46875L9.06749 0.46875L9.22312 0.46875L9.38063 0.46875L9.53624 0.46875L9.53624 0.624375M10.6313 0.9375L10.7869 0.9375L10.7869 1.09312L10.6313 1.09312L10.4738 1.09312L10.3181 1.09312L10.1625 1.09312L10.1625 0.9375L10.3181 0.9375L10.4738 0.9375L10.6313 0.9375M11.88 1.71938L11.88 1.56188L11.7244 1.56188L11.7244 1.40625L11.88 1.40625L11.88 1.25062L11.88 1.09312L11.7244 1.09312L11.5669 1.09312L11.4113 1.09312L11.2556 1.09312L11.2556 1.25062L11.2556 1.40625L11.2556 1.56188L11.4113 1.56188L11.5669 1.56188L11.7244 1.56188L11.7244 1.71938L11.5669 1.71938L11.4113 1.71938L11.2556 1.71938L11.2556 1.56188L11.0981 1.56188L11.0981 1.40625L11.0981 1.25062L11.0981 1.09312L11.2556 1.09312L11.2556 0.9375L11.4113 0.9375L11.5669 0.9375L11.7244 0.9375L11.88 0.9375L11.88 0.781875L11.88 0.624375L12.0356 0.624375L12.0356 0.781875L12.0356 0.9375L12.0356 1.09312L12.0356 1.25062L12.0356 1.40625L12.0356 1.56188L12.0356 1.71938L11.88 1.71938M11.0981 0.781875L11.0981 0.624375L11.2556 0.624375L11.2556 0.781875L11.0981 0.781875M11.88 0.624375L11.7244 0.624375L11.5669 0.624375L11.4113 0.624375L11.2556 0.624375L11.2556 0.46875L11.4113 0.46875L11.5669 0.46875L11.7244 0.46875L11.88 0.46875L11.88 0.624375M12.8175 1.71938L12.6619 1.71938L12.6619 1.56188L12.6619 1.40625L12.8175 1.40625L12.975 1.40625L12.975 1.56188L12.975 1.71938L12.8175 1.71938M13.9125 1.56188L14.0681 1.56188L14.0681 1.71938L13.9125 1.71938L13.755 1.71938L13.5994 1.71938L13.4438 1.71938L13.4438 1.56188L13.5994 1.56188L13.755 1.56188L13.9125 1.56188M14.0681 1.56188L14.0681 1.40625L14.2238 1.40625L14.2238 1.56188L14.0681 1.56188M13.4438 1.56188L13.2863 1.56188L13.2863 1.40625L13.2863 1.25062L13.2863 1.09312L13.2863 0.9375L13.2863 0.781875L13.2863 0.624375L13.4438 0.624375L13.4438 0.781875L13.4438 0.9375L13.5994 0.9375L13.755 0.9375L13.9125 0.9375L14.0681 0.9375L14.0681 0.781875L14.0681 0.624375L14.2238 0.624375L14.2238 0.781875L14.2238 0.9375L14.2238 1.09312L14.0681 1.09312L13.9125 1.09312L13.755 1.09312L13.5994 1.09312L13.4438 1.09312L13.4438 1.25062L13.4438 1.40625L13.4438 1.56188M14.0681 0.624375L13.9125 0.624375L13.755 0.624375L13.5994 0.624375L13.4438 0.624375L13.4438 0.46875L13.5994 0.46875L13.755 0.46875L13.9125 0.46875L14.0681 0.46875L14.0681 0.624375M15.3188 1.71938L15.3188 1.56188L15.1631 1.56188L15.1631 1.71938L15.0056 1.71938L14.85 1.71938L14.6944 1.71938L14.6944 1.56188L14.85 1.56188L15.0056 1.56188L15.1631 1.56188L15.1631 1.40625L15.3188 1.40625L15.3188 1.25062L15.3188 1.09312L15.3188 0.9375L15.3188 0.781875L15.3188 0.624375L15.3188 0.46875L15.4744 0.46875L15.4744 0.624375L15.4744 0.781875L15.4744 0.9375L15.4744 1.09312L15.4744 1.25062L15.4744 1.40625L15.4744 1.56188L15.4744 1.71938L15.3188 1.71938M14.6944 1.56188L14.5369 1.56188L14.5369 1.40625L14.5369 1.25062L14.5369 1.09312L14.5369 0.9375L14.5369 0.781875L14.5369 0.624375L14.5369 0.46875L14.6944 0.46875L14.6944 0.624375L14.6944 0.781875L14.6944 0.9375L14.6944 1.09312L14.6944 1.25062L14.6944 1.40625L14.6944 1.56188" sodipodi:nodetypes="ccccccccccccccccccccccccccccccccccccccccccccccccccccccccccccccccccccccccccccccccccccccccccccccccccccccccccccccccccccccccccccccccccccccccccccccccccccccccccccccccccccccccccccccccccccccccccccccccccccccccccccccccccccccccccccccccccccccccccccccccccccccccccccccccccccccccccccccccccccccccccccccccccccccccccccccccccccccccccccccccccccccccccccccccccccccccccccccccccccccccccccccccccccccccccccccccccccccccccccccccccccccccccccccccccccccccccccccccccccccccccccccccccccccccccccccccccccccccccccccccccccccccccccccccccccccccccccccccccccccccccccccccccccccccccccccccccccccccccccccccccccccccccccccccccccccccccccccccccccccccccccccccccccccccccccccccccccccccc"/>
 </g>
</svg>
