<?xml version="1.0" standalone="no"?>
<!DOCTYPE svg PUBLIC "-//W3C//DTD SVG 20010904//EN" "http://www.w3.org/TR/2001/REC-SVG-20010904/DTD/svg10.dtd">
<!-- Created using Krita: https://krita.org -->
<svg xmlns="http://www.w3.org/2000/svg" 
    xmlns:xlink="http://www.w3.org/1999/xlink"
    xmlns:krita="http://krita.org/namespaces/svg/krita"
    xmlns:sodipodi="http://sodipodi.sourceforge.net/DTD/sodipodi-0.dtd"
    width="87.12pt"
    height="62.16pt"
    viewBox="0 0 87.12 62.16">
<defs/>
<path id="shape0" transform="translate(0.239049999999999, 0.240924999999999)" fill="#1e1e2e" fill-rule="evenodd" stroke="#b7bdf8" stroke-width="0.48" stroke-linecap="square" stroke-linejoin="bevel" d="M0.00187957 61.6781L0 0L20.4084 3.8953e-09L25.5665 5.15438L86.6419 5.28188L86.6419 61.68Z" sodipodi:nodetypes="ccccccc"/><g id="group0" transform="translate(3.04499979031337, 3.50000067844624)" fill="none">
  <path id="shape1" fill="#b7bdf8" stroke-opacity="0" stroke="#000000" stroke-width="0" stroke-linecap="square" stroke-linejoin="bevel" d="M0.9375 0.313125L0.9375 0.155625L0.781875 0.155625L0.781875 0.313125L0.624375 0.313125L0.46875 0.313125L0.313125 0.313125L0.313125 0.155625L0.46875 0.155625L0.624375 0.155625L0.781875 0.155625L0.781875 0L0.9375 0L0.9375 -0.155625L0.9375 -0.313125L0.9375 -0.46875L0.9375 -0.624375L0.9375 -0.781875L0.9375 -0.9375L1.09312 -0.9375L1.09312 -0.781875L1.09312 -0.624375L1.09312 -0.46875L1.09312 -0.313125L1.09312 -0.155625L1.09312 0L1.09312 0.155625L1.09312 0.313125L0.9375 0.313125M0.313125 0.155625L0.155625 0.155625L0.155625 0L0.155625 -0.155625L0.155625 -0.313125L0.155625 -0.46875L0.155625 -0.624375L0.155625 -0.781875L0.155625 -0.9375L0.313125 -0.9375L0.313125 -0.781875L0.313125 -0.624375L0.313125 -0.46875L0.313125 -0.313125L0.313125 -0.155625L0.313125 0L0.313125 0.155625M2.18812 -0.624375L2.18812 -0.781875L2.34375 -0.781875L2.34375 -0.624375L2.18812 -0.624375M2.0325 0.155625L2.18812 0.155625L2.18812 0.313125L2.0325 0.313125L1.875 0.313125L1.71937 0.313125L1.56375 0.313125L1.56375 0.155625L1.71937 0.155625L1.875 0.155625L2.0325 0.155625M2.18812 0.155625L2.18812 0L2.18812 -0.155625L2.34375 -0.155625L2.34375 0L2.34375 0.155625L2.18812 0.155625M1.56375 0.155625L1.40625 0.155625L1.40625 0L1.56375 0L1.56375 0.155625M2.18812 -0.155625L2.0325 -0.155625L1.875 -0.155625L1.875 -0.313125L2.0325 -0.313125L2.18812 -0.313125L2.18812 -0.155625M1.875 -0.313125L1.71937 -0.313125L1.56375 -0.313125L1.56375 -0.46875L1.71937 -0.46875L1.875 -0.46875L1.875 -0.313125M1.56375 -0.46875L1.40625 -0.46875L1.40625 -0.624375L1.40625 -0.781875L1.56375 -0.781875L1.56375 -0.624375L1.56375 -0.46875M2.18812 -0.781875L2.0325 -0.781875L1.875 -0.781875L1.71937 -0.781875L1.56375 -0.781875L1.56375 -0.9375L1.71937 -0.9375L1.875 -0.9375L2.0325 -0.9375L2.18812 -0.9375L2.18812 -0.781875M3.28312 0.155625L3.43875 0.155625L3.43875 0.313125L3.28312 0.313125L3.12562 0.313125L2.97 0.313125L2.81437 0.313125L2.81437 0.155625L2.97 0.155625L3.12562 0.155625L3.28312 0.155625M3.43875 0.155625L3.43875 0L3.59437 0L3.59437 0.155625L3.43875 0.155625M2.81437 0.155625L2.65687 0.155625L2.65687 0L2.65687 -0.155625L2.65687 -0.313125L2.65687 -0.46875L2.65687 -0.624375L2.65687 -0.781875L2.81437 -0.781875L2.81437 -0.624375L2.81437 -0.46875L2.97 -0.46875L3.12562 -0.46875L3.28312 -0.46875L3.43875 -0.46875L3.43875 -0.624375L3.43875 -0.781875L3.59437 -0.781875L3.59437 -0.624375L3.59437 -0.46875L3.59437 -0.313125L3.43875 -0.313125L3.28312 -0.313125L3.12562 -0.313125L2.97 -0.313125L2.81437 -0.313125L2.81437 -0.155625L2.81437 0L2.81437 0.155625M3.43875 -0.781875L3.28312 -0.781875L3.12562 -0.781875L2.97 -0.781875L2.81437 -0.781875L2.81437 -0.9375L2.97 -0.9375L3.12562 -0.9375L3.28312 -0.9375L3.43875 -0.9375L3.43875 -0.781875M3.9075 0.313125L3.9075 0.155625L3.9075 0L3.9075 -0.155625L3.9075 -0.313125L3.9075 -0.46875L3.9075 -0.624375L3.9075 -0.781875L3.9075 -0.9375L4.065 -0.9375L4.065 -0.781875L4.22063 -0.781875L4.22063 -0.624375L4.065 -0.624375L4.065 -0.46875L4.065 -0.313125L4.065 -0.155625L4.065 0L4.065 0.155625L4.065 0.313125L3.9075 0.313125M4.68938 -0.46875L4.68938 -0.624375L4.68938 -0.781875L4.845 -0.781875L4.845 -0.624375L4.845 -0.46875L4.68938 -0.46875M4.68938 -0.781875L4.53375 -0.781875L4.37625 -0.781875L4.22063 -0.781875L4.22063 -0.9375L4.37625 -0.9375L4.53375 -0.9375L4.68938 -0.9375L4.68938 -0.781875M5.94 0.155625L6.09562 0.155625L6.09562 0.313125L5.94 0.313125L5.78437 0.313125L5.62687 0.313125L5.47125 0.313125L5.47125 0.155625L5.62687 0.155625L5.78437 0.155625L5.94 0.155625M5.47125 0.155625L5.31562 0.155625L5.31562 0L5.47125 0L5.47125 0.155625M5.94 0L5.78437 0L5.62687 0L5.62687 -0.155625L5.78437 -0.155625L5.94 -0.155625L5.94 -0.313125L5.94 -0.46875L5.94 -0.624375L5.78437 -0.624375L5.78437 -0.781875L5.94 -0.781875L5.94 -0.9375L5.94 -1.09312L6.09562 -1.09312L6.09562 -0.9375L6.09562 -0.781875L6.09562 -0.624375L6.09562 -0.46875L6.09562 -0.313125L6.09562 -0.155625L6.09562 0L5.94 0M5.31562 0L5.15812 0L5.15812 -0.155625L5.15812 -0.313125L5.15812 -0.46875L5.15812 -0.624375L5.15812 -0.781875L5.15812 -0.9375L5.31562 -0.9375L5.31562 -0.781875L5.31562 -0.624375L5.31562 -0.46875L5.31562 -0.313125L5.31562 -0.155625L5.31562 0M5.62687 -0.155625L5.47125 -0.155625L5.47125 -0.313125L5.47125 -0.46875L5.47125 -0.624375L5.47125 -0.781875L5.62687 -0.781875L5.62687 -0.624375L5.62687 -0.46875L5.62687 -0.313125L5.62687 -0.155625M5.78437 -0.781875L5.62687 -0.781875L5.62687 -0.9375L5.78437 -0.9375L5.78437 -0.781875M5.31562 -0.9375L5.31562 -1.09312L5.47125 -1.09312L5.47125 -0.9375L5.31562 -0.9375M5.94 -1.09312L5.78437 -1.09312L5.62687 -1.09312L5.47125 -1.09312L5.47125 -1.25062L5.62687 -1.25062L5.78437 -1.25062L5.94 -1.25062L5.94 -1.09312M7.19062 -0.624375L7.19062 -0.781875L7.34625 -0.781875L7.34625 -0.624375L7.19062 -0.624375M7.035 0.155625L7.19062 0.155625L7.19062 0.313125L7.035 0.313125L6.8775 0.313125L6.72187 0.313125L6.56625 0.313125L6.56625 0.155625L6.72187 0.155625L6.8775 0.155625L7.035 0.155625M7.19062 0.155625L7.19062 0L7.19062 -0.155625L7.34625 -0.155625L7.34625 0L7.34625 0.155625L7.19062 0.155625M6.56625 0.155625L6.40875 0.155625L6.40875 0L6.56625 0L6.56625 0.155625M7.19062 -0.155625L7.035 -0.155625L6.8775 -0.155625L6.8775 -0.313125L7.035 -0.313125L7.19062 -0.313125L7.19062 -0.155625M6.8775 -0.313125L6.72187 -0.313125L6.56625 -0.313125L6.56625 -0.46875L6.72187 -0.46875L6.8775 -0.46875L6.8775 -0.313125M6.56625 -0.46875L6.40875 -0.46875L6.40875 -0.624375L6.40875 -0.781875L6.56625 -0.781875L6.56625 -0.624375L6.56625 -0.46875M7.19062 -0.781875L7.035 -0.781875L6.8775 -0.781875L6.72187 -0.781875L6.56625 -0.781875L6.56625 -0.9375L6.72187 -0.9375L6.8775 -0.9375L7.035 -0.9375L7.19062 -0.9375L7.19062 -0.781875M8.44125 0.313125L8.44125 0.155625L8.44125 0L8.44125 -0.155625L8.44125 -0.313125L8.44125 -0.46875L8.44125 -0.624375L8.44125 -0.781875L8.59687 -0.781875L8.59687 -0.624375L8.59687 -0.46875L8.59687 -0.313125L8.59687 -0.155625L8.59687 0L8.59687 0.155625L8.59687 0.313125L8.44125 0.313125M7.65937 0.313125L7.65937 0.155625L7.65937 0L7.65937 -0.155625L7.65937 -0.313125L7.65937 -0.46875L7.65937 -0.624375L7.65937 -0.781875L7.65937 -0.9375L7.65937 -1.09312L7.65937 -1.25062L7.65937 -1.40625L7.81687 -1.40625L7.81687 -1.25062L7.81687 -1.09312L7.81687 -0.9375L7.81687 -0.781875L7.9725 -0.781875L7.9725 -0.624375L7.81687 -0.624375L7.81687 -0.46875L7.81687 -0.313125L7.81687 -0.155625L7.81687 0L7.81687 0.155625L7.81687 0.313125L7.65937 0.313125M8.44125 -0.781875L8.28562 -0.781875L8.12812 -0.781875L7.9725 -0.781875L7.9725 -0.9375L8.12812 -0.9375L8.28562 -0.9375L8.44125 -0.9375L8.44125 -0.781875M9.53625 0.155625L9.69187 0.155625L9.69187 0.313125L9.53625 0.313125L9.37875 0.313125L9.22312 0.313125L9.0675 0.313125L9.0675 0.155625L9.22312 0.155625L9.37875 0.155625L9.53625 0.155625M9.69187 0.155625L9.69187 0L9.8475 0L9.8475 0.155625L9.69187 0.155625M9.0675 0.155625L8.91 0.155625L8.91 0L8.91 -0.155625L8.91 -0.313125L8.91 -0.46875L8.91 -0.624375L8.91 -0.781875L9.0675 -0.781875L9.0675 -0.624375L9.0675 -0.46875L9.22312 -0.46875L9.37875 -0.46875L9.53625 -0.46875L9.69187 -0.46875L9.69187 -0.624375L9.69187 -0.781875L9.8475 -0.781875L9.8475 -0.624375L9.8475 -0.46875L9.8475 -0.313125L9.69187 -0.313125L9.53625 -0.313125L9.37875 -0.313125L9.22312 -0.313125L9.0675 -0.313125L9.0675 -0.155625L9.0675 0L9.0675 0.155625M9.69187 -0.781875L9.53625 -0.781875L9.37875 -0.781875L9.22312 -0.781875L9.0675 -0.781875L9.0675 -0.9375L9.22312 -0.9375L9.37875 -0.9375L9.53625 -0.9375L9.69187 -0.9375L9.69187 -0.781875M10.7869 -0.46875L10.9425 -0.46875L10.9425 -0.313125L10.7869 -0.313125L10.6294 -0.313125L10.4737 -0.313125L10.3181 -0.313125L10.3181 -0.46875L10.4737 -0.46875L10.6294 -0.46875L10.7869 -0.46875M12.0356 0.313125L12.0356 0.155625L11.88 0.155625L11.88 0L12.0356 0L12.0356 -0.155625L12.0356 -0.313125L11.88 -0.313125L11.7225 -0.313125L11.5669 -0.313125L11.4112 -0.313125L11.4112 -0.155625L11.4112 0L11.4112 0.155625L11.5669 0.155625L11.7225 0.155625L11.88 0.155625L11.88 0.313125L11.7225 0.313125L11.5669 0.313125L11.4112 0.313125L11.4112 0.155625L11.2537 0.155625L11.2537 0L11.2537 -0.155625L11.2537 -0.313125L11.4112 -0.313125L11.4112 -0.46875L11.5669 -0.46875L11.7225 -0.46875L11.88 -0.46875L12.0356 -0.46875L12.0356 -0.624375L12.0356 -0.781875L12.1912 -0.781875L12.1912 -0.624375L12.1912 -0.46875L12.1912 -0.313125L12.1912 -0.155625L12.1912 0L12.1912 0.155625L12.1912 0.313125L12.0356 0.313125M11.2537 -0.624375L11.2537 -0.781875L11.4112 -0.781875L11.4112 -0.624375L11.2537 -0.624375M12.0356 -0.781875L11.88 -0.781875L11.7225 -0.781875L11.5669 -0.781875L11.4112 -0.781875L11.4112 -0.9375L11.5669 -0.9375L11.7225 -0.9375L11.88 -0.9375L12.0356 -0.9375L12.0356 -0.781875M12.9731 0.313125L12.8175 0.313125L12.8175 0.155625L12.8175 0L12.9731 0L13.1306 0L13.1306 0.155625L13.1306 0.313125L12.9731 0.313125M14.0681 0.155625L14.2237 0.155625L14.2237 0.313125L14.0681 0.313125L13.9106 0.313125L13.755 0.313125L13.5994 0.313125L13.5994 0.155625L13.755 0.155625L13.9106 0.155625L14.0681 0.155625M14.2237 0.155625L14.2237 0L14.3794 0L14.3794 0.155625L14.2237 0.155625M13.5994 0.155625L13.4419 0.155625L13.4419 0L13.4419 -0.155625L13.4419 -0.313125L13.4419 -0.46875L13.4419 -0.624375L13.4419 -0.781875L13.5994 -0.781875L13.5994 -0.624375L13.5994 -0.46875L13.755 -0.46875L13.9106 -0.46875L14.0681 -0.46875L14.2237 -0.46875L14.2237 -0.624375L14.2237 -0.781875L14.3794 -0.781875L14.3794 -0.624375L14.3794 -0.46875L14.3794 -0.313125L14.2237 -0.313125L14.0681 -0.313125L13.9106 -0.313125L13.755 -0.313125L13.5994 -0.313125L13.5994 -0.155625L13.5994 0L13.5994 0.155625M14.2237 -0.781875L14.0681 -0.781875L13.9106 -0.781875L13.755 -0.781875L13.5994 -0.781875L13.5994 -0.9375L13.755 -0.9375L13.9106 -0.9375L14.0681 -0.9375L14.2237 -0.9375L14.2237 -0.781875M15.4744 0.313125L15.4744 0.155625L15.3187 0.155625L15.3187 0.313125L15.1612 0.313125L15.0056 0.313125L14.85 0.313125L14.85 0.155625L15.0056 0.155625L15.1612 0.155625L15.3187 0.155625L15.3187 0L15.4744 0L15.4744 -0.155625L15.4744 -0.313125L15.4744 -0.46875L15.4744 -0.624375L15.4744 -0.781875L15.4744 -0.9375L15.63 -0.9375L15.63 -0.781875L15.63 -0.624375L15.63 -0.46875L15.63 -0.313125L15.63 -0.155625L15.63 0L15.63 0.155625L15.63 0.313125L15.4744 0.313125M14.85 0.155625L14.6925 0.155625L14.6925 0L14.6925 -0.155625L14.6925 -0.313125L14.6925 -0.46875L14.6925 -0.624375L14.6925 -0.781875L14.6925 -0.9375L14.85 -0.9375L14.85 -0.781875L14.85 -0.624375L14.85 -0.46875L14.85 -0.313125L14.85 -0.155625L14.85 0L14.85 0.155625" sodipodi:nodetypes="ccccccccccccccccccccccccccccccccccccccccccccccccccccccccccccccccccccccccccccccccccccccccccccccccccccccccccccccccccccccccccccccccccccccccccccccccccccccccccccccccccccccccccccccccccccccccccccccccccccccccccccccccccccccccccccccccccccccccccccccccccccccccccccccccccccccccccccccccccccccccccccccccccccccccccccccccccccccccccccccccccccccccccccccccccccccccccccccccccccccccccccccccccccccccccccccccccccccccccccccccccccccccccccccccccccccccccccccccccccccccccccccccccccccccccccccccccccccccccccccccccccccccccccccccccccccccccccccccccccccccccccccccccccccccccccccccccccccccccccccccccccccccccccccccccccccccccccccccccccccccccccccccccccccccccccccccccccccccc"/>
 </g>
</svg>
